<svg width="569" height="186" viewBox="0 0 569 186" fill="none" xmlns="http://www.w3.org/2000/svg">
<path d="M47.4 152.5C42.5 152.5 37.7 152.1 33 151.3C28.4 150.5 24.5 149.35 21.3 147.85V135.4C28.8 138.8 37.5 140.5 47.4 140.5C56.7 140.5 63.45 138.45 67.65 134.35C71.95 130.35 74.1 124.25 74.1 116.05V108.4C67.5 116.3 57.8 120.25 45 120.25C37.7 120.25 31.15 118.65 25.35 115.45C19.55 112.25 15 107.75 11.7 101.95C8.4 96.15 6.75 89.5 6.75 82C6.75 74.4 8.35 67.75 11.55 62.05C14.85 56.25 19.35 51.75 25.05 48.55C30.85 45.35 37.35 43.75 44.55 43.75C51.25 43.75 56.9 44.75 61.5 46.75C66.2 48.65 70.55 51.85 74.55 56.35V46H89.25V114.4C89.25 126.7 85.8 136.1 78.9 142.6C72.1 149.2 61.6 152.5 47.4 152.5ZM48 108.25C54.2 108.25 59.65 106.6 64.35 103.3C69.15 100 72.4 95.6 74.1 90.1V73.9C72.2 68.3 68.9 63.9 64.2 60.7C59.6 57.5 54.2 55.9 48 55.9C43.1 55.9 38.65 57 34.65 59.2C30.75 61.3 27.65 64.35 25.35 68.35C23.15 72.35 22.05 76.9 22.05 82C22.05 87.2 23.15 91.8 25.35 95.8C27.65 99.7 30.75 102.75 34.65 104.95C38.65 107.15 43.1 108.25 48 108.25ZM139.727 119.92C132.815 119.92 126.714 118.64 121.423 116.08C116.218 113.435 112.122 109.68 109.135 104.816C106.234 99.8667 104.783 94.064 104.783 87.408C104.783 80.8373 106.234 75.0773 109.135 70.128C112.037 65.1787 116.133 61.3813 121.423 58.736C126.714 56.0053 132.815 54.64 139.727 54.64C146.639 54.64 152.741 56.0053 158.031 58.736C163.322 61.3813 167.418 65.1787 170.319 70.128C173.306 75.0773 174.799 80.8373 174.799 87.408C174.799 94.064 173.306 99.8667 170.319 104.816C167.418 109.68 163.322 113.435 158.031 116.08C152.741 118.64 146.639 119.92 139.727 119.92ZM139.727 109.68C146.383 109.68 151.674 107.632 155.599 103.536C159.525 99.44 161.487 94.064 161.487 87.408C161.487 80.496 159.525 75.0347 155.599 71.024C151.674 67.0133 146.383 65.008 139.727 65.008C133.071 65.008 127.781 67.0133 123.855 71.024C119.93 75.0347 117.967 80.496 117.967 87.408C117.967 94.064 119.93 99.44 123.855 103.536C127.781 107.632 133.071 109.68 139.727 109.68ZM217.977 119.92C211.065 119.92 204.964 118.64 199.673 116.08C194.468 113.435 190.372 109.68 187.385 104.816C184.484 99.8667 183.033 94.064 183.033 87.408C183.033 80.8373 184.484 75.0773 187.385 70.128C190.287 65.1787 194.383 61.3813 199.673 58.736C204.964 56.0053 211.065 54.64 217.977 54.64C224.889 54.64 230.991 56.0053 236.281 58.736C241.572 61.3813 245.668 65.1787 248.569 70.128C251.556 75.0773 253.049 80.8373 253.049 87.408C253.049 94.064 251.556 99.8667 248.569 104.816C245.668 109.68 241.572 113.435 236.281 116.08C230.991 118.64 224.889 119.92 217.977 119.92ZM217.977 109.68C224.633 109.68 229.924 107.632 233.849 103.536C237.775 99.44 239.737 94.064 239.737 87.408C239.737 80.496 237.775 75.0347 233.849 71.024C229.924 67.0133 224.633 65.008 217.977 65.008C211.321 65.008 206.031 67.0133 202.105 71.024C198.18 75.0347 196.217 80.496 196.217 87.408C196.217 94.064 198.18 99.44 202.105 103.536C206.031 107.632 211.321 109.68 217.977 109.68ZM294.914 119.92C288.77 119.92 283.224 118.597 278.274 115.952C273.41 113.221 269.57 109.424 266.754 104.56C264.024 99.6107 262.658 93.8933 262.658 87.408C262.658 81.008 264.024 75.3333 266.754 70.384C269.57 65.4347 273.41 61.5947 278.274 58.864C283.224 56.048 288.77 54.64 294.914 54.64C306.008 54.64 314.413 58.0107 320.13 64.752V23.408H333.058V118H320.514V109.04C317.101 112.795 313.346 115.568 309.25 117.36C305.24 119.067 300.461 119.92 294.914 119.92ZM297.858 109.68C303.149 109.68 307.757 108.315 311.682 105.584C315.693 102.768 318.509 99.0133 320.13 94.32V80.496C318.68 75.8027 315.906 72.048 311.81 69.232C307.8 66.416 303.149 65.008 297.858 65.008C293.677 65.008 289.88 65.9467 286.466 67.824C283.138 69.7013 280.493 72.3467 278.53 75.76C276.653 79.1733 275.714 83.056 275.714 87.408C275.714 91.76 276.653 95.6427 278.53 99.056C280.493 102.469 283.138 105.115 286.466 106.992C289.88 108.784 293.677 109.68 297.858 109.68Z" fill="black"/>
<path d="M429.477 119.92C422.565 119.92 416.464 118.64 411.173 116.08C405.968 113.435 401.872 109.68 398.885 104.816C395.984 99.8667 394.533 94.064 394.533 87.408C394.533 80.8373 395.984 75.0773 398.885 70.128C401.787 65.1787 405.883 61.3813 411.173 58.736C416.464 56.0053 422.565 54.64 429.477 54.64C436.389 54.64 442.491 56.0053 447.781 58.736C453.072 61.3813 457.168 65.1787 460.069 70.128C463.056 75.0773 464.549 80.8373 464.549 87.408C464.549 94.064 463.056 99.8667 460.069 104.816C457.168 109.68 453.072 113.435 447.781 116.08C442.491 118.64 436.389 119.92 429.477 119.92ZM429.477 109.68C436.133 109.68 441.424 107.632 445.349 103.536C449.275 99.44 451.237 94.064 451.237 87.408C451.237 80.496 449.275 75.0347 445.349 71.024C441.424 67.0133 436.133 65.008 429.477 65.008C422.821 65.008 417.531 67.0133 413.605 71.024C409.68 75.0347 407.717 80.496 407.717 87.408C407.717 94.064 409.68 99.44 413.605 103.536C417.531 107.632 422.821 109.68 429.477 109.68ZM514.862 119.92C509.316 119.92 504.494 119.067 500.398 117.36C496.388 115.568 492.676 112.795 489.262 109.04V118H476.718V23.408H489.646V64.752C492.462 61.424 496.089 58.9067 500.526 57.2C504.964 55.4933 509.742 54.64 514.862 54.64C521.006 54.64 526.51 56.048 531.374 58.864C536.324 61.5947 540.164 65.4347 542.894 70.384C545.71 75.3333 547.118 81.008 547.118 87.408C547.118 93.8933 545.71 99.6107 542.894 104.56C540.164 109.424 536.324 113.221 531.374 115.952C526.51 118.597 521.006 119.92 514.862 119.92ZM511.918 109.68C516.1 109.68 519.854 108.784 523.182 106.992C526.596 105.115 529.241 102.469 531.118 99.056C533.081 95.6427 534.062 91.76 534.062 87.408C534.062 83.056 533.081 79.1733 531.118 75.76C529.241 72.3467 526.596 69.7013 523.182 67.824C519.854 65.9467 516.1 65.008 511.918 65.008C506.713 65.008 502.062 66.416 497.966 69.232C493.87 72.048 491.097 75.8027 489.646 80.496V94.32C491.268 99.0133 494.041 102.768 497.966 105.584C501.977 108.315 506.628 109.68 511.918 109.68Z" fill="#FF9C00"/>
<path d="M156.586 130.3C162.829 135.158 169.934 137.583 177.902 137.575C185.87 137.568 192.973 135.129 199.21 130.258L199.215 139.042C193.331 143.848 186.228 146.255 177.908 146.263C169.588 146.272 162.483 143.878 156.591 139.084L156.586 130.3Z" fill="black"/>
<path d="M47.4 152.5C42.5 152.5 37.7 152.1 33 151.3C28.4 150.5 24.5 149.35 21.3 147.85V135.4C28.8 138.8 37.5 140.5 47.4 140.5C56.7 140.5 63.45 138.45 67.65 134.35C71.95 130.35 74.1 124.25 74.1 116.05V108.4C67.5 116.3 57.8 120.25 45 120.25C37.7 120.25 31.15 118.65 25.35 115.45C19.55 112.25 15 107.75 11.7 101.95C8.4 96.15 6.75 89.5 6.75 82C6.75 74.4 8.35 67.75 11.55 62.05C14.85 56.25 19.35 51.75 25.05 48.55C30.85 45.35 37.35 43.75 44.55 43.75C51.25 43.75 56.9 44.75 61.5 46.75C66.2 48.65 70.55 51.85 74.55 56.35V46H89.25V114.4C89.25 126.7 85.8 136.1 78.9 142.6C72.1 149.2 61.6 152.5 47.4 152.5ZM48 108.25C54.2 108.25 59.65 106.6 64.35 103.3C69.15 100 72.4 95.6 74.1 90.1V73.9C72.2 68.3 68.9 63.9 64.2 60.7C59.6 57.5 54.2 55.9 48 55.9C43.1 55.9 38.65 57 34.65 59.2C30.75 61.3 27.65 64.35 25.35 68.35C23.15 72.35 22.05 76.9 22.05 82C22.05 87.2 23.15 91.8 25.35 95.8C27.65 99.7 30.75 102.75 34.65 104.95C38.65 107.15 43.1 108.25 48 108.25ZM139.727 119.92C132.815 119.92 126.714 118.64 121.423 116.08C116.218 113.435 112.122 109.68 109.135 104.816C106.234 99.8667 104.783 94.064 104.783 87.408C104.783 80.8373 106.234 75.0773 109.135 70.128C112.037 65.1787 116.133 61.3813 121.423 58.736C126.714 56.0053 132.815 54.64 139.727 54.64C146.639 54.64 152.741 56.0053 158.031 58.736C163.322 61.3813 167.418 65.1787 170.319 70.128C173.306 75.0773 174.799 80.8373 174.799 87.408C174.799 94.064 173.306 99.8667 170.319 104.816C167.418 109.68 163.322 113.435 158.031 116.08C152.741 118.64 146.639 119.92 139.727 119.92ZM139.727 109.68C146.383 109.68 151.674 107.632 155.599 103.536C159.525 99.44 161.487 94.064 161.487 87.408C161.487 80.496 159.525 75.0347 155.599 71.024C151.674 67.0133 146.383 65.008 139.727 65.008C133.071 65.008 127.781 67.0133 123.855 71.024C119.93 75.0347 117.967 80.496 117.967 87.408C117.967 94.064 119.93 99.44 123.855 103.536C127.781 107.632 133.071 109.68 139.727 109.68ZM217.977 119.92C211.065 119.92 204.964 118.64 199.673 116.08C194.468 113.435 190.372 109.68 187.385 104.816C184.484 99.8667 183.033 94.064 183.033 87.408C183.033 80.8373 184.484 75.0773 187.385 70.128C190.287 65.1787 194.383 61.3813 199.673 58.736C204.964 56.0053 211.065 54.64 217.977 54.64C224.889 54.64 230.991 56.0053 236.281 58.736C241.572 61.3813 245.668 65.1787 248.569 70.128C251.556 75.0773 253.049 80.8373 253.049 87.408C253.049 94.064 251.556 99.8667 248.569 104.816C245.668 109.68 241.572 113.435 236.281 116.08C230.991 118.64 224.889 119.92 217.977 119.92ZM217.977 109.68C224.633 109.68 229.924 107.632 233.849 103.536C237.775 99.44 239.737 94.064 239.737 87.408C239.737 80.496 237.775 75.0347 233.849 71.024C229.924 67.0133 224.633 65.008 217.977 65.008C211.321 65.008 206.031 67.0133 202.105 71.024C198.18 75.0347 196.217 80.496 196.217 87.408C196.217 94.064 198.18 99.44 202.105 103.536C206.031 107.632 211.321 109.68 217.977 109.68ZM294.914 119.92C288.77 119.92 283.224 118.597 278.274 115.952C273.41 113.221 269.57 109.424 266.754 104.56C264.024 99.6107 262.658 93.8933 262.658 87.408C262.658 81.008 264.024 75.3333 266.754 70.384C269.57 65.4347 273.41 61.5947 278.274 58.864C283.224 56.048 288.77 54.64 294.914 54.64C306.008 54.64 314.413 58.0107 320.13 64.752V23.408H333.058V118H320.514V109.04C317.101 112.795 313.346 115.568 309.25 117.36C305.24 119.067 300.461 119.92 294.914 119.92ZM297.858 109.68C303.149 109.68 307.757 108.315 311.682 105.584C315.693 102.768 318.509 99.0133 320.13 94.32V80.496C318.68 75.8027 315.906 72.048 311.81 69.232C307.8 66.416 303.149 65.008 297.858 65.008C293.677 65.008 289.88 65.9467 286.466 67.824C283.138 69.7013 280.493 72.3467 278.53 75.76C276.653 79.1733 275.714 83.056 275.714 87.408C275.714 91.76 276.653 95.6427 278.53 99.056C280.493 102.469 283.138 105.115 286.466 106.992C289.88 108.784 293.677 109.68 297.858 109.68Z" fill="white"/>
<path d="M429.477 119.92C422.565 119.92 416.464 118.64 411.173 116.08C405.968 113.435 401.872 109.68 398.885 104.816C395.984 99.8667 394.533 94.064 394.533 87.408C394.533 80.8373 395.984 75.0773 398.885 70.128C401.787 65.1787 405.883 61.3813 411.173 58.736C416.464 56.0053 422.565 54.64 429.477 54.64C436.389 54.64 442.491 56.0053 447.781 58.736C453.072 61.3813 457.168 65.1787 460.069 70.128C463.056 75.0773 464.549 80.8373 464.549 87.408C464.549 94.064 463.056 99.8667 460.069 104.816C457.168 109.68 453.072 113.435 447.781 116.08C442.491 118.64 436.389 119.92 429.477 119.92ZM429.477 109.68C436.133 109.68 441.424 107.632 445.349 103.536C449.275 99.44 451.237 94.064 451.237 87.408C451.237 80.496 449.275 75.0347 445.349 71.024C441.424 67.0133 436.133 65.008 429.477 65.008C422.821 65.008 417.531 67.0133 413.605 71.024C409.68 75.0347 407.717 80.496 407.717 87.408C407.717 94.064 409.68 99.44 413.605 103.536C417.531 107.632 422.821 109.68 429.477 109.68ZM514.862 119.92C509.316 119.92 504.494 119.067 500.398 117.36C496.388 115.568 492.676 112.795 489.262 109.04V118H476.718V23.408H489.646V64.752C492.462 61.424 496.089 58.9067 500.526 57.2C504.964 55.4933 509.742 54.64 514.862 54.64C521.006 54.64 526.51 56.048 531.374 58.864C536.324 61.5947 540.164 65.4347 542.894 70.384C545.71 75.3333 547.118 81.008 547.118 87.408C547.118 93.8933 545.71 99.6107 542.894 104.56C540.164 109.424 536.324 113.221 531.374 115.952C526.51 118.597 521.006 119.92 514.862 119.92ZM511.918 109.68C516.1 109.68 519.854 108.784 523.182 106.992C526.596 105.115 529.241 102.469 531.118 99.056C533.081 95.6427 534.062 91.76 534.062 87.408C534.062 83.056 533.081 79.1733 531.118 75.76C529.241 72.3467 526.596 69.7013 523.182 67.824C519.854 65.9467 516.1 65.008 511.918 65.008C506.713 65.008 502.062 66.416 497.966 69.232C493.87 72.048 491.097 75.8027 489.646 80.496V94.32C491.268 99.0133 494.041 102.768 497.966 105.584C501.977 108.315 506.628 109.68 511.918 109.68Z" fill="#FF9C00"/>
<path d="M156.586 130.3C162.829 135.158 169.934 137.583 177.902 137.575C185.87 137.568 192.973 135.129 199.21 130.258L199.215 139.042C193.331 143.848 186.228 146.255 177.908 146.263C169.588 146.272 162.483 143.878 156.591 139.084L156.586 130.3Z" fill="white"/>
<path d="M370.439 178.881C369.41 181.263 366.041 181.288 364.958 178.922L346.925 139.537C346.02 137.559 347.447 135.313 349.619 135.297L384.791 135.034C386.962 135.018 388.439 137.242 387.579 139.233L370.439 178.881Z" fill="#FF9C00"/>
<path d="M364.325 53.2103C365.067 50.1322 369.451 50.146 370.164 53.2286L386.606 124.313C387.043 126.198 385.605 127.999 383.669 127.993L350.112 127.888C348.176 127.882 346.756 126.072 347.209 124.189L364.325 53.2103Z" fill="#FF9C00"/>
<ellipse cx="366.896" cy="30.7714" rx="10.3725" ry="9.77139" fill="#FF9C00"/>
</svg>
